<mxfile host="app.diagrams.net" modified="2024-03-11T05:54:21.152Z" agent="Mozilla/5.0 (Macintosh; Intel Mac OS X 10_15_7) AppleWebKit/605.1.15 (KHTML, like Gecko) Version/17.1 Safari/605.1.15" etag="Bbovb3E4iIKfJdiQmz8_" version="24.0.4" type="device">
  <diagram name="Страница — 1" id="jvghSdwSpNbo85IBinJU">
    <mxGraphModel dx="3244" dy="1078" grid="1" gridSize="11" guides="1" tooltips="1" connect="1" arrows="1" fold="1" page="1" pageScale="1" pageWidth="827" pageHeight="1169" math="0" shadow="0">
      <root>
        <mxCell id="0" />
        <mxCell id="1" parent="0" />
        <mxCell id="bGfBSWejrqcEYvaSUzek-1" value="Пользователь" style="rounded=0;whiteSpace=wrap;html=1;" parent="1" vertex="1">
          <mxGeometry x="154" y="308" width="132" height="66" as="geometry" />
        </mxCell>
        <mxCell id="bGfBSWejrqcEYvaSUzek-2" value="Пароль" style="ellipse;whiteSpace=wrap;html=1;" parent="1" vertex="1">
          <mxGeometry x="44" y="110" width="132" height="66" as="geometry" />
        </mxCell>
        <mxCell id="bGfBSWejrqcEYvaSUzek-3" value="Логин" style="ellipse;whiteSpace=wrap;html=1;" parent="1" vertex="1">
          <mxGeometry x="264" y="110" width="132" height="66" as="geometry" />
        </mxCell>
        <mxCell id="bGfBSWejrqcEYvaSUzek-4" value="Id" style="ellipse;whiteSpace=wrap;html=1;" parent="1" vertex="1">
          <mxGeometry x="44" y="198" width="132" height="66" as="geometry" />
        </mxCell>
        <mxCell id="bGfBSWejrqcEYvaSUzek-5" value="Почта" style="ellipse;whiteSpace=wrap;html=1;" parent="1" vertex="1">
          <mxGeometry x="264" y="198" width="132" height="66" as="geometry" />
        </mxCell>
        <mxCell id="bGfBSWejrqcEYvaSUzek-6" value="" style="endArrow=none;html=1;rounded=0;exitX=0.5;exitY=0;exitDx=0;exitDy=0;entryX=0;entryY=0.5;entryDx=0;entryDy=0;" parent="1" source="bGfBSWejrqcEYvaSUzek-1" target="bGfBSWejrqcEYvaSUzek-3" edge="1">
          <mxGeometry width="50" height="50" relative="1" as="geometry">
            <mxPoint x="484" y="391" as="sourcePoint" />
            <mxPoint x="534" y="341" as="targetPoint" />
            <Array as="points">
              <mxPoint x="220" y="143" />
            </Array>
          </mxGeometry>
        </mxCell>
        <mxCell id="bGfBSWejrqcEYvaSUzek-7" value="" style="endArrow=none;html=1;rounded=0;exitX=0.5;exitY=0;exitDx=0;exitDy=0;entryX=1;entryY=0.5;entryDx=0;entryDy=0;" parent="1" source="bGfBSWejrqcEYvaSUzek-1" target="bGfBSWejrqcEYvaSUzek-2" edge="1">
          <mxGeometry width="50" height="50" relative="1" as="geometry">
            <mxPoint x="484" y="391" as="sourcePoint" />
            <mxPoint x="534" y="341" as="targetPoint" />
            <Array as="points">
              <mxPoint x="220" y="143" />
            </Array>
          </mxGeometry>
        </mxCell>
        <mxCell id="bGfBSWejrqcEYvaSUzek-8" value="" style="endArrow=none;html=1;rounded=0;exitX=0.5;exitY=0;exitDx=0;exitDy=0;entryX=0;entryY=0.5;entryDx=0;entryDy=0;" parent="1" source="bGfBSWejrqcEYvaSUzek-1" target="bGfBSWejrqcEYvaSUzek-5" edge="1">
          <mxGeometry width="50" height="50" relative="1" as="geometry">
            <mxPoint x="484" y="391" as="sourcePoint" />
            <mxPoint x="534" y="341" as="targetPoint" />
            <Array as="points">
              <mxPoint x="220" y="231" />
            </Array>
          </mxGeometry>
        </mxCell>
        <mxCell id="bGfBSWejrqcEYvaSUzek-9" value="" style="endArrow=none;html=1;rounded=0;exitX=0.5;exitY=0;exitDx=0;exitDy=0;entryX=1;entryY=0.5;entryDx=0;entryDy=0;" parent="1" source="bGfBSWejrqcEYvaSUzek-1" target="bGfBSWejrqcEYvaSUzek-4" edge="1">
          <mxGeometry width="50" height="50" relative="1" as="geometry">
            <mxPoint x="484" y="391" as="sourcePoint" />
            <mxPoint x="534" y="341" as="targetPoint" />
            <Array as="points">
              <mxPoint x="220" y="231" />
            </Array>
          </mxGeometry>
        </mxCell>
        <mxCell id="bGfBSWejrqcEYvaSUzek-11" value="Устройство" style="rounded=0;whiteSpace=wrap;html=1;" parent="1" vertex="1">
          <mxGeometry x="160" y="550" width="120" height="60" as="geometry" />
        </mxCell>
        <mxCell id="bGfBSWejrqcEYvaSUzek-12" value="Имя" style="ellipse;whiteSpace=wrap;html=1;" parent="1" vertex="1">
          <mxGeometry x="55" y="649" width="132" height="66" as="geometry" />
        </mxCell>
        <mxCell id="bGfBSWejrqcEYvaSUzek-14" value="Id" style="ellipse;whiteSpace=wrap;html=1;" parent="1" vertex="1">
          <mxGeometry x="264" y="649" width="132" height="66" as="geometry" />
        </mxCell>
        <mxCell id="bGfBSWejrqcEYvaSUzek-16" value="" style="endArrow=none;html=1;rounded=0;exitX=0.5;exitY=1;exitDx=0;exitDy=0;entryX=0;entryY=0.5;entryDx=0;entryDy=0;" parent="1" source="bGfBSWejrqcEYvaSUzek-11" target="bGfBSWejrqcEYvaSUzek-14" edge="1">
          <mxGeometry width="50" height="50" relative="1" as="geometry">
            <mxPoint x="528" y="534" as="sourcePoint" />
            <mxPoint x="578" y="484" as="targetPoint" />
            <Array as="points">
              <mxPoint x="220" y="682" />
            </Array>
          </mxGeometry>
        </mxCell>
        <mxCell id="bGfBSWejrqcEYvaSUzek-18" value="" style="endArrow=none;html=1;rounded=0;exitX=1;exitY=0.5;exitDx=0;exitDy=0;entryX=0.5;entryY=1;entryDx=0;entryDy=0;" parent="1" source="bGfBSWejrqcEYvaSUzek-12" target="bGfBSWejrqcEYvaSUzek-11" edge="1">
          <mxGeometry width="50" height="50" relative="1" as="geometry">
            <mxPoint x="528" y="534" as="sourcePoint" />
            <mxPoint x="578" y="484" as="targetPoint" />
            <Array as="points">
              <mxPoint x="220" y="682" />
            </Array>
          </mxGeometry>
        </mxCell>
        <mxCell id="bGfBSWejrqcEYvaSUzek-21" value="" style="edgeStyle=orthogonalEdgeStyle;rounded=0;orthogonalLoop=1;jettySize=auto;html=1;endArrow=ERmany;endFill=0;startArrow=none;startFill=0;" parent="1" source="bGfBSWejrqcEYvaSUzek-19" target="bGfBSWejrqcEYvaSUzek-11" edge="1">
          <mxGeometry relative="1" as="geometry" />
        </mxCell>
        <mxCell id="bGfBSWejrqcEYvaSUzek-19" value="Владеет" style="rhombus;whiteSpace=wrap;html=1;" parent="1" vertex="1">
          <mxGeometry x="152.5" y="418" width="135" height="80" as="geometry" />
        </mxCell>
        <mxCell id="bGfBSWejrqcEYvaSUzek-20" value="" style="endArrow=ERmany;html=1;rounded=0;entryX=0.5;entryY=1;entryDx=0;entryDy=0;exitX=0.5;exitY=0;exitDx=0;exitDy=0;endFill=0;" parent="1" source="bGfBSWejrqcEYvaSUzek-19" target="bGfBSWejrqcEYvaSUzek-1" edge="1">
          <mxGeometry width="50" height="50" relative="1" as="geometry">
            <mxPoint x="528" y="501" as="sourcePoint" />
            <mxPoint x="578" y="451" as="targetPoint" />
          </mxGeometry>
        </mxCell>
        <mxCell id="bGfBSWejrqcEYvaSUzek-51" value="Тип устройства" style="ellipse;whiteSpace=wrap;html=1;" parent="1" vertex="1">
          <mxGeometry x="55" y="748" width="132" height="66" as="geometry" />
        </mxCell>
        <mxCell id="QLrHMtNlHkacDDfor1Ep-2" value="Состояние" style="ellipse;whiteSpace=wrap;html=1;" vertex="1" parent="1">
          <mxGeometry x="264" y="748" width="132" height="66" as="geometry" />
        </mxCell>
        <mxCell id="QLrHMtNlHkacDDfor1Ep-3" value="Марка" style="ellipse;whiteSpace=wrap;html=1;" vertex="1" parent="1">
          <mxGeometry x="55" y="858" width="132" height="66" as="geometry" />
        </mxCell>
        <mxCell id="QLrHMtNlHkacDDfor1Ep-4" value="Максимальный параметр" style="ellipse;whiteSpace=wrap;html=1;" vertex="1" parent="1">
          <mxGeometry x="264" y="858" width="132" height="66" as="geometry" />
        </mxCell>
        <mxCell id="QLrHMtNlHkacDDfor1Ep-6" value="Минимальный показатель" style="ellipse;whiteSpace=wrap;html=1;" vertex="1" parent="1">
          <mxGeometry x="264" y="957" width="132" height="66" as="geometry" />
        </mxCell>
        <mxCell id="QLrHMtNlHkacDDfor1Ep-9" value="" style="endArrow=none;html=1;rounded=0;entryX=0.5;entryY=1;entryDx=0;entryDy=0;exitX=1;exitY=0.5;exitDx=0;exitDy=0;" edge="1" parent="1" source="bGfBSWejrqcEYvaSUzek-51" target="bGfBSWejrqcEYvaSUzek-11">
          <mxGeometry width="50" height="50" relative="1" as="geometry">
            <mxPoint x="440" y="930" as="sourcePoint" />
            <mxPoint x="490" y="880" as="targetPoint" />
            <Array as="points">
              <mxPoint x="220" y="781" />
            </Array>
          </mxGeometry>
        </mxCell>
        <mxCell id="QLrHMtNlHkacDDfor1Ep-10" value="" style="endArrow=none;html=1;rounded=0;entryX=0.5;entryY=1;entryDx=0;entryDy=0;exitX=0;exitY=0.5;exitDx=0;exitDy=0;" edge="1" parent="1" source="QLrHMtNlHkacDDfor1Ep-2" target="bGfBSWejrqcEYvaSUzek-11">
          <mxGeometry width="50" height="50" relative="1" as="geometry">
            <mxPoint x="440" y="930" as="sourcePoint" />
            <mxPoint x="490" y="880" as="targetPoint" />
            <Array as="points">
              <mxPoint x="220" y="781" />
            </Array>
          </mxGeometry>
        </mxCell>
        <mxCell id="QLrHMtNlHkacDDfor1Ep-11" value="" style="endArrow=none;html=1;rounded=0;entryX=0.5;entryY=1;entryDx=0;entryDy=0;exitX=1;exitY=0.5;exitDx=0;exitDy=0;" edge="1" parent="1" source="QLrHMtNlHkacDDfor1Ep-3" target="bGfBSWejrqcEYvaSUzek-11">
          <mxGeometry width="50" height="50" relative="1" as="geometry">
            <mxPoint x="440" y="930" as="sourcePoint" />
            <mxPoint x="490" y="880" as="targetPoint" />
            <Array as="points">
              <mxPoint x="220" y="891" />
            </Array>
          </mxGeometry>
        </mxCell>
        <mxCell id="QLrHMtNlHkacDDfor1Ep-12" value="" style="endArrow=none;html=1;rounded=0;entryX=0.5;entryY=1;entryDx=0;entryDy=0;exitX=0;exitY=0.5;exitDx=0;exitDy=0;" edge="1" parent="1" source="QLrHMtNlHkacDDfor1Ep-4" target="bGfBSWejrqcEYvaSUzek-11">
          <mxGeometry width="50" height="50" relative="1" as="geometry">
            <mxPoint x="231" y="853" as="sourcePoint" />
            <mxPoint x="281" y="803" as="targetPoint" />
            <Array as="points">
              <mxPoint x="220" y="891" />
            </Array>
          </mxGeometry>
        </mxCell>
        <mxCell id="QLrHMtNlHkacDDfor1Ep-13" value="" style="endArrow=none;html=1;rounded=0;entryX=0.5;entryY=1;entryDx=0;entryDy=0;exitX=1;exitY=0.5;exitDx=0;exitDy=0;" edge="1" parent="1" target="bGfBSWejrqcEYvaSUzek-11">
          <mxGeometry width="50" height="50" relative="1" as="geometry">
            <mxPoint x="186.99999999999795" y="990" as="sourcePoint" />
            <mxPoint x="347" y="803" as="targetPoint" />
            <Array as="points">
              <mxPoint x="220" y="990" />
            </Array>
          </mxGeometry>
        </mxCell>
        <mxCell id="QLrHMtNlHkacDDfor1Ep-14" value="" style="endArrow=none;html=1;rounded=0;entryX=0.5;entryY=1;entryDx=0;entryDy=0;exitX=0;exitY=0.5;exitDx=0;exitDy=0;" edge="1" parent="1" source="QLrHMtNlHkacDDfor1Ep-6" target="bGfBSWejrqcEYvaSUzek-11">
          <mxGeometry width="50" height="50" relative="1" as="geometry">
            <mxPoint x="297" y="853" as="sourcePoint" />
            <mxPoint x="347" y="803" as="targetPoint" />
            <Array as="points">
              <mxPoint x="220" y="990" />
            </Array>
          </mxGeometry>
        </mxCell>
        <mxCell id="QLrHMtNlHkacDDfor1Ep-15" value="Электропотребление" style="ellipse;whiteSpace=wrap;html=1;" vertex="1" parent="1">
          <mxGeometry x="55" y="957" width="132" height="66" as="geometry" />
        </mxCell>
        <mxCell id="QLrHMtNlHkacDDfor1Ep-16" value="История работы устройство" style="rounded=0;whiteSpace=wrap;html=1;" vertex="1" parent="1">
          <mxGeometry x="-264" y="550" width="120" height="60" as="geometry" />
        </mxCell>
        <mxCell id="QLrHMtNlHkacDDfor1Ep-17" value="" style="endArrow=ERmany;html=1;rounded=0;exitX=0;exitY=0.5;exitDx=0;exitDy=0;entryX=1;entryY=0.5;entryDx=0;entryDy=0;startArrow=none;startFill=0;endFill=0;" edge="1" parent="1" source="bGfBSWejrqcEYvaSUzek-11" target="QLrHMtNlHkacDDfor1Ep-16">
          <mxGeometry width="50" height="50" relative="1" as="geometry">
            <mxPoint x="132" y="446" as="sourcePoint" />
            <mxPoint x="182" y="396" as="targetPoint" />
          </mxGeometry>
        </mxCell>
        <mxCell id="QLrHMtNlHkacDDfor1Ep-18" value="id_устройства" style="ellipse;whiteSpace=wrap;html=1;" vertex="1" parent="1">
          <mxGeometry x="-374.5" y="649" width="132" height="66" as="geometry" />
        </mxCell>
        <mxCell id="QLrHMtNlHkacDDfor1Ep-19" value="Время работы" style="ellipse;whiteSpace=wrap;html=1;" vertex="1" parent="1">
          <mxGeometry x="-165.5" y="649" width="132" height="66" as="geometry" />
        </mxCell>
        <mxCell id="QLrHMtNlHkacDDfor1Ep-22" value="id" style="ellipse;whiteSpace=wrap;html=1;" vertex="1" parent="1">
          <mxGeometry x="-374.5" y="748" width="132" height="66" as="geometry" />
        </mxCell>
        <mxCell id="QLrHMtNlHkacDDfor1Ep-23" value="Средний показатель" style="ellipse;whiteSpace=wrap;html=1;" vertex="1" parent="1">
          <mxGeometry x="-165.5" y="748" width="132" height="66" as="geometry" />
        </mxCell>
        <mxCell id="QLrHMtNlHkacDDfor1Ep-26" value="" style="endArrow=none;html=1;rounded=0;entryX=0.5;entryY=1;entryDx=0;entryDy=0;exitX=1;exitY=0.5;exitDx=0;exitDy=0;" edge="1" parent="1" source="QLrHMtNlHkacDDfor1Ep-22" target="QLrHMtNlHkacDDfor1Ep-16">
          <mxGeometry width="50" height="50" relative="1" as="geometry">
            <mxPoint x="-198" y="765" as="sourcePoint" />
            <mxPoint x="-148" y="715" as="targetPoint" />
            <Array as="points">
              <mxPoint x="-204" y="781" />
            </Array>
          </mxGeometry>
        </mxCell>
        <mxCell id="QLrHMtNlHkacDDfor1Ep-27" value="" style="endArrow=none;html=1;rounded=0;entryX=0.5;entryY=1;entryDx=0;entryDy=0;exitX=0;exitY=0.5;exitDx=0;exitDy=0;" edge="1" parent="1" source="QLrHMtNlHkacDDfor1Ep-23" target="QLrHMtNlHkacDDfor1Ep-16">
          <mxGeometry width="50" height="50" relative="1" as="geometry">
            <mxPoint x="-198" y="765" as="sourcePoint" />
            <mxPoint x="-148" y="715" as="targetPoint" />
            <Array as="points">
              <mxPoint x="-204" y="781" />
            </Array>
          </mxGeometry>
        </mxCell>
        <mxCell id="QLrHMtNlHkacDDfor1Ep-28" value="" style="endArrow=none;html=1;rounded=0;entryX=0.5;entryY=1;entryDx=0;entryDy=0;exitX=1;exitY=0.5;exitDx=0;exitDy=0;" edge="1" parent="1" source="QLrHMtNlHkacDDfor1Ep-18" target="QLrHMtNlHkacDDfor1Ep-16">
          <mxGeometry width="50" height="50" relative="1" as="geometry">
            <mxPoint x="-198" y="765" as="sourcePoint" />
            <mxPoint x="-148" y="715" as="targetPoint" />
            <Array as="points">
              <mxPoint x="-204" y="682" />
            </Array>
          </mxGeometry>
        </mxCell>
        <mxCell id="QLrHMtNlHkacDDfor1Ep-29" value="" style="endArrow=none;html=1;rounded=0;exitX=0;exitY=0.5;exitDx=0;exitDy=0;entryX=0.5;entryY=1;entryDx=0;entryDy=0;" edge="1" parent="1" source="QLrHMtNlHkacDDfor1Ep-19" target="QLrHMtNlHkacDDfor1Ep-16">
          <mxGeometry width="50" height="50" relative="1" as="geometry">
            <mxPoint x="-198" y="765" as="sourcePoint" />
            <mxPoint x="-187" y="616" as="targetPoint" />
            <Array as="points">
              <mxPoint x="-204" y="682" />
            </Array>
          </mxGeometry>
        </mxCell>
        <mxCell id="QLrHMtNlHkacDDfor1Ep-30" value="Потребленная электроэнергия" style="ellipse;whiteSpace=wrap;html=1;" vertex="1" parent="1">
          <mxGeometry x="-270" y="858" width="132" height="66" as="geometry" />
        </mxCell>
        <mxCell id="QLrHMtNlHkacDDfor1Ep-31" value="" style="endArrow=none;html=1;rounded=0;entryX=0.5;entryY=1;entryDx=0;entryDy=0;exitX=0.5;exitY=0;exitDx=0;exitDy=0;" edge="1" parent="1" source="QLrHMtNlHkacDDfor1Ep-30" target="QLrHMtNlHkacDDfor1Ep-16">
          <mxGeometry width="50" height="50" relative="1" as="geometry">
            <mxPoint x="-187" y="853" as="sourcePoint" />
            <mxPoint x="-137" y="803" as="targetPoint" />
          </mxGeometry>
        </mxCell>
        <mxCell id="QLrHMtNlHkacDDfor1Ep-32" value="Имеет" style="rhombus;whiteSpace=wrap;html=1;" vertex="1" parent="1">
          <mxGeometry x="-135" y="301" width="135" height="80" as="geometry" />
        </mxCell>
        <mxCell id="QLrHMtNlHkacDDfor1Ep-33" value="" style="endArrow=ERmany;html=1;rounded=0;entryX=0;entryY=0.5;entryDx=0;entryDy=0;exitX=1;exitY=0.5;exitDx=0;exitDy=0;startArrow=none;startFill=0;endFill=0;" edge="1" parent="1" source="QLrHMtNlHkacDDfor1Ep-32" target="bGfBSWejrqcEYvaSUzek-1">
          <mxGeometry width="50" height="50" relative="1" as="geometry">
            <mxPoint x="-99" y="589" as="sourcePoint" />
            <mxPoint x="-49" y="539" as="targetPoint" />
          </mxGeometry>
        </mxCell>
        <mxCell id="QLrHMtNlHkacDDfor1Ep-34" value="Доступ к дому" style="rounded=0;whiteSpace=wrap;html=1;" vertex="1" parent="1">
          <mxGeometry x="-429" y="308" width="132" height="66" as="geometry" />
        </mxCell>
        <mxCell id="QLrHMtNlHkacDDfor1Ep-35" value="" style="endArrow=none;html=1;rounded=0;entryX=0;entryY=0.5;entryDx=0;entryDy=0;exitX=1;exitY=0.5;exitDx=0;exitDy=0;startArrow=ERmany;startFill=0;" edge="1" parent="1" source="QLrHMtNlHkacDDfor1Ep-34" target="QLrHMtNlHkacDDfor1Ep-32">
          <mxGeometry width="50" height="50" relative="1" as="geometry">
            <mxPoint x="-99" y="589" as="sourcePoint" />
            <mxPoint x="-49" y="539" as="targetPoint" />
          </mxGeometry>
        </mxCell>
        <mxCell id="QLrHMtNlHkacDDfor1Ep-36" value="Владелец" style="ellipse;whiteSpace=wrap;html=1;" vertex="1" parent="1">
          <mxGeometry x="-539" y="99" width="132" height="66" as="geometry" />
        </mxCell>
        <mxCell id="QLrHMtNlHkacDDfor1Ep-37" value="Статус доступа" style="ellipse;whiteSpace=wrap;html=1;" vertex="1" parent="1">
          <mxGeometry x="-319" y="99" width="132" height="66" as="geometry" />
        </mxCell>
        <mxCell id="QLrHMtNlHkacDDfor1Ep-38" value="Id" style="ellipse;whiteSpace=wrap;html=1;" vertex="1" parent="1">
          <mxGeometry x="-539" y="187" width="132" height="66" as="geometry" />
        </mxCell>
        <mxCell id="QLrHMtNlHkacDDfor1Ep-39" value="Уровень доступа" style="ellipse;whiteSpace=wrap;html=1;" vertex="1" parent="1">
          <mxGeometry x="-319" y="187" width="132" height="66" as="geometry" />
        </mxCell>
        <mxCell id="QLrHMtNlHkacDDfor1Ep-40" value="" style="endArrow=none;html=1;rounded=0;entryX=1;entryY=0.5;entryDx=0;entryDy=0;exitX=0.5;exitY=0;exitDx=0;exitDy=0;" edge="1" parent="1" source="QLrHMtNlHkacDDfor1Ep-34" target="QLrHMtNlHkacDDfor1Ep-36">
          <mxGeometry width="50" height="50" relative="1" as="geometry">
            <mxPoint x="-22" y="303" as="sourcePoint" />
            <mxPoint x="28" y="253" as="targetPoint" />
            <Array as="points">
              <mxPoint x="-363" y="132" />
            </Array>
          </mxGeometry>
        </mxCell>
        <mxCell id="QLrHMtNlHkacDDfor1Ep-41" value="" style="endArrow=none;html=1;rounded=0;entryX=0;entryY=0.5;entryDx=0;entryDy=0;exitX=0.5;exitY=0;exitDx=0;exitDy=0;" edge="1" parent="1" source="QLrHMtNlHkacDDfor1Ep-34" target="QLrHMtNlHkacDDfor1Ep-37">
          <mxGeometry width="50" height="50" relative="1" as="geometry">
            <mxPoint x="-22" y="303" as="sourcePoint" />
            <mxPoint x="28" y="253" as="targetPoint" />
            <Array as="points">
              <mxPoint x="-363" y="132" />
            </Array>
          </mxGeometry>
        </mxCell>
        <mxCell id="QLrHMtNlHkacDDfor1Ep-42" value="" style="endArrow=none;html=1;rounded=0;entryX=1;entryY=0.5;entryDx=0;entryDy=0;exitX=0.5;exitY=0;exitDx=0;exitDy=0;" edge="1" parent="1" source="QLrHMtNlHkacDDfor1Ep-34" target="QLrHMtNlHkacDDfor1Ep-38">
          <mxGeometry width="50" height="50" relative="1" as="geometry">
            <mxPoint x="-22" y="303" as="sourcePoint" />
            <mxPoint x="28" y="253" as="targetPoint" />
            <Array as="points">
              <mxPoint x="-363" y="220" />
            </Array>
          </mxGeometry>
        </mxCell>
        <mxCell id="QLrHMtNlHkacDDfor1Ep-43" value="" style="endArrow=none;html=1;rounded=0;entryX=0;entryY=0.5;entryDx=0;entryDy=0;exitX=0.5;exitY=0;exitDx=0;exitDy=0;" edge="1" parent="1" source="QLrHMtNlHkacDDfor1Ep-34" target="QLrHMtNlHkacDDfor1Ep-39">
          <mxGeometry width="50" height="50" relative="1" as="geometry">
            <mxPoint x="-22" y="303" as="sourcePoint" />
            <mxPoint x="28" y="253" as="targetPoint" />
            <Array as="points">
              <mxPoint x="-363" y="220" />
            </Array>
          </mxGeometry>
        </mxCell>
        <mxCell id="QLrHMtNlHkacDDfor1Ep-44" value="История доступа" style="rounded=0;whiteSpace=wrap;html=1;" vertex="1" parent="1">
          <mxGeometry x="-836" y="308" width="132" height="66" as="geometry" />
        </mxCell>
        <mxCell id="QLrHMtNlHkacDDfor1Ep-46" value="Дата входа в дом" style="ellipse;whiteSpace=wrap;html=1;" vertex="1" parent="1">
          <mxGeometry x="-726" y="99" width="132" height="66" as="geometry" />
        </mxCell>
        <mxCell id="QLrHMtNlHkacDDfor1Ep-47" value="Id" style="ellipse;whiteSpace=wrap;html=1;" vertex="1" parent="1">
          <mxGeometry x="-946" y="187" width="132" height="66" as="geometry" />
        </mxCell>
        <mxCell id="QLrHMtNlHkacDDfor1Ep-48" value="id_пользователя" style="ellipse;whiteSpace=wrap;html=1;" vertex="1" parent="1">
          <mxGeometry x="-726" y="187" width="132" height="66" as="geometry" />
        </mxCell>
        <mxCell id="QLrHMtNlHkacDDfor1Ep-49" value="" style="endArrow=none;html=1;rounded=0;entryX=1;entryY=0.5;entryDx=0;entryDy=0;exitX=0.5;exitY=0;exitDx=0;exitDy=0;" edge="1" parent="1" source="QLrHMtNlHkacDDfor1Ep-44">
          <mxGeometry width="50" height="50" relative="1" as="geometry">
            <mxPoint x="-429" y="303" as="sourcePoint" />
            <mxPoint x="-813.9999999999977" y="131.99999999999977" as="targetPoint" />
            <Array as="points">
              <mxPoint x="-770" y="132" />
            </Array>
          </mxGeometry>
        </mxCell>
        <mxCell id="QLrHMtNlHkacDDfor1Ep-50" value="" style="endArrow=none;html=1;rounded=0;entryX=0;entryY=0.5;entryDx=0;entryDy=0;exitX=0.5;exitY=0;exitDx=0;exitDy=0;" edge="1" parent="1" source="QLrHMtNlHkacDDfor1Ep-44" target="QLrHMtNlHkacDDfor1Ep-46">
          <mxGeometry width="50" height="50" relative="1" as="geometry">
            <mxPoint x="-429" y="303" as="sourcePoint" />
            <mxPoint x="-379" y="253" as="targetPoint" />
            <Array as="points">
              <mxPoint x="-770" y="132" />
            </Array>
          </mxGeometry>
        </mxCell>
        <mxCell id="QLrHMtNlHkacDDfor1Ep-51" value="" style="endArrow=none;html=1;rounded=0;entryX=1;entryY=0.5;entryDx=0;entryDy=0;exitX=0.5;exitY=0;exitDx=0;exitDy=0;" edge="1" parent="1" source="QLrHMtNlHkacDDfor1Ep-44" target="QLrHMtNlHkacDDfor1Ep-47">
          <mxGeometry width="50" height="50" relative="1" as="geometry">
            <mxPoint x="-429" y="303" as="sourcePoint" />
            <mxPoint x="-379" y="253" as="targetPoint" />
            <Array as="points">
              <mxPoint x="-770" y="220" />
            </Array>
          </mxGeometry>
        </mxCell>
        <mxCell id="QLrHMtNlHkacDDfor1Ep-52" value="" style="endArrow=none;html=1;rounded=0;entryX=0;entryY=0.5;entryDx=0;entryDy=0;exitX=0.5;exitY=0;exitDx=0;exitDy=0;" edge="1" parent="1" source="QLrHMtNlHkacDDfor1Ep-44" target="QLrHMtNlHkacDDfor1Ep-48">
          <mxGeometry width="50" height="50" relative="1" as="geometry">
            <mxPoint x="-429" y="303" as="sourcePoint" />
            <mxPoint x="-379" y="253" as="targetPoint" />
            <Array as="points">
              <mxPoint x="-770" y="220" />
            </Array>
          </mxGeometry>
        </mxCell>
        <mxCell id="QLrHMtNlHkacDDfor1Ep-53" value="" style="endArrow=ERmany;html=1;rounded=0;entryX=0;entryY=0.5;entryDx=0;entryDy=0;exitX=1;exitY=0.5;exitDx=0;exitDy=0;endFill=0;" edge="1" parent="1" source="QLrHMtNlHkacDDfor1Ep-44" target="QLrHMtNlHkacDDfor1Ep-34">
          <mxGeometry width="50" height="50" relative="1" as="geometry">
            <mxPoint x="-770" y="303" as="sourcePoint" />
            <mxPoint x="-720" y="253" as="targetPoint" />
          </mxGeometry>
        </mxCell>
        <mxCell id="QLrHMtNlHkacDDfor1Ep-54" value="Дата выхода из дома" style="ellipse;whiteSpace=wrap;html=1;" vertex="1" parent="1">
          <mxGeometry x="-836" width="132" height="66" as="geometry" />
        </mxCell>
        <mxCell id="QLrHMtNlHkacDDfor1Ep-55" value="Статус" style="ellipse;whiteSpace=wrap;html=1;" vertex="1" parent="1">
          <mxGeometry x="-946" y="99" width="132" height="66" as="geometry" />
        </mxCell>
        <mxCell id="QLrHMtNlHkacDDfor1Ep-56" value="" style="endArrow=none;html=1;rounded=0;entryX=0.5;entryY=1;entryDx=0;entryDy=0;" edge="1" parent="1" target="QLrHMtNlHkacDDfor1Ep-54">
          <mxGeometry width="50" height="50" relative="1" as="geometry">
            <mxPoint x="-770" y="308" as="sourcePoint" />
            <mxPoint x="-588" y="418" as="targetPoint" />
          </mxGeometry>
        </mxCell>
      </root>
    </mxGraphModel>
  </diagram>
</mxfile>
